<?xml version="1.0" encoding="UTF-8"?>
<svg id="Layer_1" data-name="Layer 1" xmlns="http://www.w3.org/2000/svg" xmlns:xlink="http://www.w3.org/1999/xlink" viewBox="0 0 30.68 30.68">
  <defs>
    <style>
      .cls-1 {
        clip-path: url(#clippath);
      }

      .cls-2, .cls-3, .cls-4 {
        fill: none;
      }

      .cls-2, .cls-5 {
        stroke-width: 0px;
      }

      .cls-3 {
        stroke-linecap: round;
        stroke-linejoin: round;
      }

      .cls-3, .cls-4 {
        stroke: #005eac;
        stroke-width: .5px;
      }

      .cls-6 {
        clip-path: url(#clippath-1);
      }

      .cls-7 {
        clip-path: url(#clippath-2);
      }

      .cls-4 {
        stroke-miterlimit: 10;
      }

      .cls-5 {
        fill: #fff;
      }
    </style>
    <clipPath id="clippath">
      <rect class="cls-2" x="-.25" y="-.25" width="31.18" height="31.18"/>
    </clipPath>
    <clipPath id="clippath-1">
      <path class="cls-2" d="M0,15.34c0,8.47,6.87,15.34,15.34,15.34s15.34-6.87,15.34-15.34S23.81,0,15.34,0,0,6.87,0,15.34"/>
    </clipPath>
    <clipPath id="clippath-2">
      <rect class="cls-2" x="-.25" y="-.25" width="31.18" height="31.18"/>
    </clipPath>
  </defs>
  <g class="cls-1">
    <path class="cls-5" d="M15.34,30.68c8.47,0,15.34-6.87,15.34-15.34S23.81,0,15.34,0,0,6.87,0,15.34s6.87,15.34,15.34,15.34"/>
  </g>
  <g class="cls-6">
    <path class="cls-3" d="M16.25,14.36c-.22-.47-1.18-1.23-1.79.08M17.01,17.77s-1.53-1.31-3.27,0M14.08,18.49s1.59,1.11,2.76-.09M13.43,16.48c-.06-1.38,1.71-1.42,1.71-1.42,0,0,1.99-.28,2.24,1.36,0,0-.37,1.3-.55,1.98,0,0,2.84,2.32,4.57,2.91,1.74.59,2.12-.89,1.32-1.31-1.26-.65-5.35-3.59-5.35-3.59,0,0,1.66-.95,4.49-2.41,2.83-1.46,4.79-3.39,4.65-4.36-.14-.97-.73-1.22-1.94-.53-1.2.69-9.44,5.94-9.44,5.94,0,0-3.82-3.65-8.03-5.56-2.1-.84-4.03.35-2.7,1.37,1.33,1.02,9.02,5.62,9.02,5.62,0,0-3.93,2.14-4.99,3.42-1.06,1.28-.49,2.24.86,1.47,1.36-.77,4.78-2.89,4.78-2.89-.39-.74-.62-1.23-.65-2.01ZM15.39,11.37v2.34M17.09,8.51s-2.11-.84-3.28,0l1.58,2.88,1.69-2.88Z"/>
  </g>
  <g class="cls-7">
    <path class="cls-4" d="M15.34,30.68c8.47,0,15.34-6.87,15.34-15.34S23.81,0,15.34,0,0,6.87,0,15.34s6.87,15.34,15.34,15.34Z"/>
  </g>
</svg>