<?xml version="1.0" encoding="UTF-8"?>
<svg id="Layer_1" data-name="Layer 1" xmlns="http://www.w3.org/2000/svg" xmlns:xlink="http://www.w3.org/1999/xlink" viewBox="0 0 31.18 31.18">
  <defs>
    <style>
      .cls-1 {
        clip-path: url(#clippath);
      }

      .cls-2, .cls-3, .cls-4 {
        fill: none;
      }

      .cls-2, .cls-5 {
        stroke-width: 0px;
      }

      .cls-3 {
        stroke-linecap: round;
        stroke-linejoin: round;
      }

      .cls-3, .cls-4 {
        stroke: #005eac;
        stroke-width: .5px;
      }

      .cls-6 {
        clip-path: url(#clippath-1);
      }

      .cls-7 {
        clip-path: url(#clippath-2);
      }

      .cls-4 {
        stroke-miterlimit: 10;
      }

      .cls-5 {
        fill: #fff;
      }
    </style>
    <clipPath id="clippath">
      <rect class="cls-2" x="0" width="31.18" height="31.18"/>
    </clipPath>
    <clipPath id="clippath-1">
      <path class="cls-2" d="M.25,15.59c0,8.47,6.87,15.34,15.34,15.34s15.34-6.87,15.34-15.34S24.06.25,15.59.25.25,7.12.25,15.59"/>
    </clipPath>
    <clipPath id="clippath-2">
      <rect class="cls-2" x="0" width="31.18" height="31.18"/>
    </clipPath>
  </defs>
  <g class="cls-1">
    <path class="cls-5" d="M15.59,30.93c8.47,0,15.34-6.87,15.34-15.34S24.06.25,15.59.25.25,7.12.25,15.59s6.87,15.34,15.34,15.34"/>
  </g>
  <g class="cls-6">
    <path class="cls-3" d="M9.7,22.3c1.66,0,3.98-.79,6.45-2.28.18-.11.36-.22.53-.33.44-.28.87-.57,1.27-.87.42-.3.82-.62,1.21-.94l-.09-.23-.37-.13c-.35.29-.73.57-1.1.85-.39.29-.81.57-1.25.85-.46.29-.92.57-1.37.81-3.21,1.74-6.12,2.25-6.96,1.11-.52-.71-.2-2.02.84-3.57v-.98c-1.6,2.07-2.07,3.84-1.31,4.88.41.56,1.16.83,2.12.83ZM23.77,13.87c.25-.25.25-.65,0-.9-.25-.25-.65-.25-.9,0-.07.07-.51.54-1.08,1.17l-2.99-.36-.49.48,2.45,1.03c-.3.33-.59.67-.87.99l-1.38.03-.38.38,1.08.39.32.11.11.31.4,1.08.38-.38.02-1.37c.33-.28.67-.58,1-.87l1.03,2.44.49-.49-.36-2.97h0c.63-.57,1.1-1,1.17-1.07ZM14,10.64v-.68c0-.28.23-.5.51-.5h2.36c.28,0,.51.23.51.5v.68h-3.38ZM21.93,14.02v-2.28c-.01-.61-.5-1.1-1.12-1.1h-2.86v-.68c0-.59-.48-1.08-1.08-1.08h-2.36c-.6,0-1.08.48-1.08,1.08v.68h-2.86c-.61,0-1.11.5-1.11,1.1v6.61c0,.61.5,1.1,1.11,1.1h5.44M17.03,19.44h3.78c.55,0,1.01-.4,1.09-.93l.02-1.43"/>
  </g>
  <g class="cls-7">
    <path class="cls-4" d="M15.59,30.93c8.47,0,15.34-6.87,15.34-15.34S24.06.25,15.59.25.25,7.12.25,15.59s6.87,15.34,15.34,15.34Z"/>
  </g>
</svg>