<?xml version="1.0" encoding="UTF-8"?>
<svg id="Layer_1" data-name="Layer 1" xmlns="http://www.w3.org/2000/svg" xmlns:xlink="http://www.w3.org/1999/xlink" viewBox="0 0 31.18 31.18">
  <defs>
    <style>
      .cls-1 {
        clip-path: url(#clippath);
      }

      .cls-2, .cls-3, .cls-4 {
        fill: none;
      }

      .cls-2, .cls-5 {
        stroke-width: 0px;
      }

      .cls-6 {
        clip-path: url(#clippath-1);
      }

      .cls-7 {
        clip-path: url(#clippath-2);
      }

      .cls-3 {
        stroke-miterlimit: 10;
        stroke-width: .5px;
      }

      .cls-3, .cls-4 {
        stroke: #005eac;
      }

      .cls-4 {
        stroke-linecap: round;
        stroke-linejoin: round;
        stroke-width: .4px;
      }

      .cls-5 {
        fill: #fff;
      }
    </style>
    <clipPath id="clippath">
      <rect class="cls-2" x="0" width="31.18" height="31.18"/>
    </clipPath>
    <clipPath id="clippath-1">
      <path class="cls-2" d="M.25,15.59c0,8.47,6.87,15.34,15.34,15.34s15.34-6.87,15.34-15.34S24.06.25,15.59.25.25,7.12.25,15.59"/>
    </clipPath>
    <clipPath id="clippath-2">
      <rect class="cls-2" x="0" width="31.18" height="31.18"/>
    </clipPath>
  </defs>
  <g class="cls-1">
    <path class="cls-5" d="M15.59,30.93c8.47,0,15.34-6.87,15.34-15.34S24.06.25,15.59.25.25,7.12.25,15.59s6.87,15.34,15.34,15.34"/>
  </g>
  <g class="cls-6">
    <path class="cls-4" d="M12.11,20.42l-1.25,1.1M12.32,20.97c0,.46-.37.83-.83.83s-.83-.37-.83-.83.37-.83.83-.83.83.37.83.83ZM19.6,22.98v.31c0,.17.14.32.32.32h.61c.17,0,.32-.14.32-.32v-.31M10.99,22.98v.31c0,.17.14.32.31.32h.61c.17,0,.32-.14.32-.32v-.31M17.14,13.44h4.64c.54,0,1.09.23,1.09.97v2.25c0,.5-.66.4-.66,0v-2.01c0-.28-.23-.31-.66-.31M18.66,12.51v-.71h1.13v.71M18.21,18.03c-.25-.04-1.07-.91-1.07-1.8v-2.8c0-.55.56-.92,1.18-.92h2.06c.62,0,1.18.37,1.18.92v2.8c0,.89-.82,1.76-1.07,1.8M18.22,18.86v-.82h2.27v.82M12.96,8.32v-.75h-1.09v.75M13.36,11.67h-1.78M12.43,14.41v-2.74M14.84,9.36h-5.46c-.43,0-1.07.25-1.07.81v2.81c0,.47.69.53.69-.14v-2.14s-.03-.41.77-.33M13.72,14.41s1.12-.45,1.12-1.81v-3.36s-.08-.92-1.06-.92h-3.07c-.44,0-.87.36-.87.95v3.6c0,.51.32,1.45,1.02,1.61M11.18,14.46s-1.14-.13-1.44,1.01c-.14.84-.72,5.61-.9,6.35-.18.73.28,1.17,1.17,1.17h11.8c.46,0,.93-.42.93-1.19v-1.77c0-.69-.58-1.16-1.15-1.16h-5.92s-.44-2.63-.56-3.39c-.12-.77-.72-1.05-1.45-1.05-.91,0-2.48.05-2.48.05Z"/>
  </g>
  <g class="cls-7">
    <path class="cls-3" d="M15.59,30.93c8.47,0,15.34-6.87,15.34-15.34S24.06.25,15.59.25.25,7.12.25,15.59s6.87,15.34,15.34,15.34Z"/>
  </g>
</svg>