<?xml version="1.0" encoding="UTF-8"?>
<svg id="Layer_1" data-name="Layer 1" xmlns="http://www.w3.org/2000/svg" xmlns:xlink="http://www.w3.org/1999/xlink" viewBox="0 0 30.68 30.68">
  <defs>
    <style>
      .cls-1 {
        clip-path: url(#clippath);
      }

      .cls-2, .cls-3, .cls-4 {
        fill: none;
      }

      .cls-2, .cls-5 {
        stroke-width: 0px;
      }

      .cls-3 {
        stroke-linecap: round;
        stroke-linejoin: round;
      }

      .cls-3, .cls-4 {
        stroke: #005eac;
        stroke-width: .5px;
      }

      .cls-6 {
        clip-path: url(#clippath-1);
      }

      .cls-7 {
        clip-path: url(#clippath-2);
      }

      .cls-4 {
        stroke-miterlimit: 10;
      }

      .cls-5 {
        fill: #fff;
      }
    </style>
    <clipPath id="clippath">
      <rect class="cls-2" x="-.25" y="-.25" width="31.18" height="31.18"/>
    </clipPath>
    <clipPath id="clippath-1">
      <path class="cls-2" d="M0,15.34c0,8.47,6.87,15.34,15.34,15.34s15.34-6.87,15.34-15.34S23.81,0,15.34,0,0,6.87,0,15.34"/>
    </clipPath>
    <clipPath id="clippath-2">
      <rect class="cls-2" x="-.25" y="-.25" width="31.18" height="31.18"/>
    </clipPath>
  </defs>
  <g class="cls-1">
    <path class="cls-5" d="M15.34,30.68c8.47,0,15.34-6.87,15.34-15.34S23.81,0,15.34,0,0,6.87,0,15.34s6.87,15.34,15.34,15.34"/>
  </g>
  <g class="cls-6">
    <path class="cls-3" d="M21.29,20.57l-2.01-2.03M11.37,18.6l-1.97,2M7.1,16.24l2.69-.57M10.17,12.38l-2.61-1.05M12.23,9.75l-1.58-2.27M15.29,8.82v-2.78M23.58,16.26l-2.75-.64M18.42,9.81l1.56-2.31M20.5,12.28l2.59-1.06M13.21,23.34c.55.41,1.25.62,2.1.62s1.53-.21,2.1-.6M14.58,10.7c-.9.17-1.59.6-2.23,1.39M14.49,23.89c.06.41.41.75.84.75s.78-.33.84-.75M13.21,22.8c.55.41,1.25.62,2.1.62s1.53-.21,2.1-.6M17.17,21.64c-.51.37-1.14.58-1.84.58s-1.33-.21-1.86-.58M13.21,22.18c.59.44,1.33.68,2.1.68s1.51-.23,2.1-.66M13.37,15.9s.87.5,1.26,1.64M15.45,19.67c-.41-.19-1.03-.84-1.03-.84-.88-.97-1.96-2.51-1.82-4.04,1.08-.19,1.72.33,1.94.56,0,0,.27.32.31.4M15.43,21.61c-.07-.92.04-1.92.04-1.92-.36-.26-.67-1.14-.67-1.14-.23-.83-.37-2.05.2-3.15.47-.89,1.15-1.57,1.98-2.01.41-.21.76-.29.96-.35.12.58.37,2.3-.45,3.9-.53,1.01-1.49,2.18-2.02,2.76,0-.17.02-.35.02-.54.08-1.16.41-2.82,1.49-4.21M18.71,11.16c-.84-.91-2.04-1.41-3.37-1.41s-2.51.5-3.37,1.41c-.82.87-1.27,2.09-1.27,3.42,0,1.64.72,2.67,1.35,3.6.51.73.94,1.37.94,2.13,0,.41.31.79.92,1.04.43.19.98.31,1.43.31s1-.12,1.43-.31c.59-.25.92-.62.92-1.04,0-.79.43-1.41.94-2.13.63-.93,1.35-1.97,1.35-3.6,0-1.33-.45-2.53-1.27-3.42Z"/>
  </g>
  <g class="cls-7">
    <path class="cls-4" d="M15.34,30.68c8.47,0,15.34-6.87,15.34-15.34S23.81,0,15.34,0,0,6.87,0,15.34s6.87,15.34,15.34,15.34Z"/>
  </g>
</svg>