<?xml version="1.0" encoding="UTF-8"?>
<svg id="Layer_1" data-name="Layer 1" xmlns="http://www.w3.org/2000/svg" xmlns:xlink="http://www.w3.org/1999/xlink" viewBox="0 0 31.18 31.18">
  <defs>
    <style>
      .cls-1 {
        clip-path: url(#clippath);
      }

      .cls-2, .cls-3, .cls-4 {
        fill: none;
      }

      .cls-2, .cls-5 {
        stroke-width: 0px;
      }

      .cls-3 {
        stroke-linecap: round;
        stroke-linejoin: round;
      }

      .cls-3, .cls-4 {
        stroke: #005eac;
        stroke-width: .5px;
      }

      .cls-6 {
        clip-path: url(#clippath-1);
      }

      .cls-7 {
        clip-path: url(#clippath-2);
      }

      .cls-4 {
        stroke-miterlimit: 10;
      }

      .cls-5 {
        fill: #fff;
      }
    </style>
    <clipPath id="clippath">
      <rect class="cls-2" x="0" width="31.18" height="31.18"/>
    </clipPath>
    <clipPath id="clippath-1">
      <path class="cls-2" d="M.25,15.59c0,8.47,6.87,15.34,15.34,15.34s15.34-6.87,15.34-15.34S24.06.25,15.59.25.25,7.12.25,15.59"/>
    </clipPath>
    <clipPath id="clippath-2">
      <rect class="cls-2" x="0" width="31.18" height="31.18"/>
    </clipPath>
  </defs>
  <g class="cls-1">
    <path class="cls-5" d="M15.59,30.93c8.47,0,15.34-6.87,15.34-15.34S24.06.25,15.59.25.25,7.12.25,15.59s6.87,15.34,15.34,15.34"/>
  </g>
  <g class="cls-6">
    <path class="cls-3" d="M15.76,24.55c4.81-.82,7.51-3.97,7.51-6.84v-7.8c-5.7-.26-7.68-3.28-7.68-3.28,0,0-1.98,3.02-7.68,3.28v7.8c0,2.42,2.7,6.02,7.51,6.84h.35ZM19.02,20.01v1.46M12.82,19.85v1.45M16.96,20.02v1.28M14.91,20.02v1.28M13.73,21.43v-1.52c0-.6.48-1.08,1.08-1.08h2.08c.6,0,1.08.48,1.08,1.08v1.52M17.08,17.14c0,.66-.54,1.2-1.2,1.2s-1.2-.54-1.2-1.2.54-1.19,1.2-1.19,1.2.53,1.2,1.19ZM15.74,15.48c.08-.43.44-1.07,1.03-1.07h2.45c.23,0,.64.07.89.49.24.42,1.02,2.04,1.08,2.14.05.1.05.28-.09.48-.14.2-1.16,1.83-1.63,2.34-.22.23-.56.2-.82-.06-.26-.25-.1-.61.05-.86l1.18-1.75-.74-1.54M16.42,14.09c-.29-.49-.64-.86-1.24-.86h-2.95c-.33,0-.68.15-.92.63-.24.48-1.23,2.4-1.28,2.48-.06.08-.12.3.07.57s1.72,2.58,1.86,2.76c.14.18.54.38.96.13.25-.15.47-.54.24-.93-.24-.4-1.56-2.3-1.56-2.3l.89-1.77M16.66,12.58c0-.71.58-1.29,1.29-1.29s1.29.58,1.29,1.29-.58,1.29-1.29,1.29-1.29-.58-1.29-1.29ZM12.74,11.22c0-.83.68-1.51,1.51-1.51s1.51.67,1.51,1.51-.68,1.51-1.51,1.51-1.51-.67-1.51-1.51Z"/>
  </g>
  <g class="cls-7">
    <path class="cls-4" d="M15.59,30.93c8.47,0,15.34-6.87,15.34-15.34S24.06.25,15.59.25.25,7.12.25,15.59s6.87,15.34,15.34,15.34Z"/>
  </g>
</svg>