<?xml version="1.0" encoding="UTF-8"?>
<svg id="Layer_1" data-name="Layer 1" xmlns="http://www.w3.org/2000/svg" xmlns:xlink="http://www.w3.org/1999/xlink" viewBox="0 0 31.18 31.18">
  <defs>
    <style>
      .cls-1 {
        clip-path: url(#clippath);
      }

      .cls-2, .cls-3, .cls-4 {
        fill: none;
      }

      .cls-2, .cls-5 {
        stroke-width: 0px;
      }

      .cls-3 {
        stroke-linecap: round;
        stroke-linejoin: round;
      }

      .cls-3, .cls-4 {
        stroke: #005eac;
        stroke-width: .5px;
      }

      .cls-6 {
        clip-path: url(#clippath-1);
      }

      .cls-7 {
        clip-path: url(#clippath-2);
      }

      .cls-4 {
        stroke-miterlimit: 10;
      }

      .cls-5 {
        fill: #fff;
      }
    </style>
    <clipPath id="clippath">
      <rect class="cls-2" x="0" width="31.18" height="31.18"/>
    </clipPath>
    <clipPath id="clippath-1">
      <path class="cls-2" d="M.25,15.59c0,8.47,6.87,15.34,15.34,15.34s15.34-6.87,15.34-15.34S24.06.25,15.59.25.25,7.12.25,15.59"/>
    </clipPath>
    <clipPath id="clippath-2">
      <rect class="cls-2" x="0" width="31.18" height="31.18"/>
    </clipPath>
  </defs>
  <g class="cls-1">
    <path class="cls-5" d="M15.59,30.93c8.47,0,15.34-6.87,15.34-15.34S24.06.25,15.59.25.25,7.12.25,15.59s6.87,15.34,15.34,15.34"/>
  </g>
  <g class="cls-6">
    <path class="cls-3" d="M18.46,9.92c.08.53.54.92,1.09.92h1.11c.17,0,.32-.14.32-.31v-1.84c0-.17-.14-.31-.32-.31h-1.11c-.55,0-1.01.39-1.09.92h-1.28c-.17,0-.32.14-.32.31s.14.31.32.31h1.28ZM7.36,14.52h-.95c-.17,0-.32.14-.32.31v1.23M8.72,14.82h5.47c-.3,1.05-.25,2.16.13,3.18M14.3,14.83l.61-.02h.17c.66,0,1.19-.52,1.19-1.15v-.14c0-.64-.53-1.15-1.19-1.16h-5.85c-.66,0-1.19.52-1.19,1.16v.14c0,.46.29.88.73,1.06-1.33,1.03-2.24,2.48-2.57,4.1-.06.27.12.53.4.59.03,0,.07.01.1.01h7.93c.94,0,1.83-.39,2.45-1.06,0,0,.02-.02.02-.03,0,0,1.19-1.58.8-3.62M13.68,19.34v-.53c-.17-1.91-1.81-3.37-3.79-3.37M21.83,15.75c-2.24-.02-4.07,1.69-3.7,3.36,0,.17.14.31.32.31h6.33c.17,0,.32-.14.32-.31,0-1.75-1.39-3.21-3.2-3.36l-.04-.35c-.17-1.46-.85-2.83-1.92-3.87-.06-.06-.14-.09-.22-.09-1.05,0-1.9.82-1.9,1.84M7.21,20.04c0,1.52,1.28,2.76,2.85,2.76s2.85-1.24,2.85-2.76M8.79,20.04c0,.68.57,1.23,1.27,1.23s1.27-.55,1.27-1.23M18.76,20.04c0,1.52,1.28,2.76,2.85,2.76s2.85-1.24,2.85-2.76M20.34,20.04c0,.68.57,1.23,1.27,1.23s1.27-.55,1.27-1.23"/>
  </g>
  <g class="cls-7">
    <path class="cls-4" d="M15.59,30.93c8.47,0,15.34-6.87,15.34-15.34S24.06.25,15.59.25.25,7.12.25,15.59s6.87,15.34,15.34,15.34Z"/>
  </g>
</svg>