<?xml version="1.0" encoding="UTF-8"?>
<svg id="Layer_1" data-name="Layer 1" xmlns="http://www.w3.org/2000/svg" xmlns:xlink="http://www.w3.org/1999/xlink" viewBox="0 0 30.68 30.68">
  <defs>
    <style>
      .cls-1 {
        clip-path: url(#clippath);
      }

      .cls-2, .cls-3, .cls-4 {
        fill: none;
      }

      .cls-2, .cls-5 {
        stroke-width: 0px;
      }

      .cls-3 {
        stroke-linecap: round;
        stroke-linejoin: round;
        stroke-width: .46px;
      }

      .cls-3, .cls-4 {
        stroke: #005eac;
      }

      .cls-6 {
        clip-path: url(#clippath-1);
      }

      .cls-7 {
        clip-path: url(#clippath-2);
      }

      .cls-4 {
        stroke-miterlimit: 10;
        stroke-width: .5px;
      }

      .cls-5 {
        fill: #fff;
      }
    </style>
    <clipPath id="clippath">
      <rect class="cls-2" x="-.25" y="-.25" width="31.18" height="31.18"/>
    </clipPath>
    <clipPath id="clippath-1">
      <path class="cls-2" d="M0,15.34c0,8.47,6.87,15.34,15.34,15.34s15.34-6.87,15.34-15.34S23.81,0,15.34,0,0,6.87,0,15.34"/>
    </clipPath>
    <clipPath id="clippath-2">
      <rect class="cls-2" x="-.25" y="-.25" width="31.18" height="31.18"/>
    </clipPath>
  </defs>
  <g class="cls-1">
    <path class="cls-5" d="M15.34,30.68c8.47,0,15.34-6.87,15.34-15.34S23.81,0,15.34,0,0,6.87,0,15.34s6.87,15.34,15.34,15.34"/>
  </g>
  <g class="cls-6">
    <path class="cls-3" d="M12.05,16.28h-4.15M19.19,6.82l-8.62,1.14M12.94,10.56c.14-1.03.99-1.66,2.06-1.66,1.16,0,2.11.94,2.11,2.11s-.94,2.11-2.11,2.11c-.87,0-1.62-.53-1.94-1.29M19.35,11.65s-.38,1.32-1.35,1.42M18,8.72s1.24.42,1.3,1.41M11.86,8.58s-1.05.24-1.35,1.27M10.42,8.04h9.72v5.89h-8.84M10.52,8.03l-.76.02v4.64s1.39-1.3,1.92-1.97c.54-.66,1.23-.39,1.51.13.28.52-.11.9-.11.9l-1.9,2.08s.3.31.87.81c.56.49,0,1.64,0,1.64h.33v1.41h-4.48v-1.74l-.42-1.02c-.33-.8-.48-1.67-.44-2.53l.03-.83c.04-.9.27-1.77.69-2.57.76-1.45,1.98-3.72,2.39-4.13.61-.61,2.02.26,1.55.87-.2.25-1.17,2.28-1.17,2.28l8.65-2.28v1.08h.47v1.21M13.81,21.38s.48,1.81,4.9,1.5M14.78,20.46c-.82.36-.97.59-.97,1.06v1.83s.56,1.19,4.77,1.14c1.47-.04,3.4-.5,3.98-1.24v-1.02M14.78,20.09c.59.56,5.15,1.96,8.87-.04M22.49,18.33v.68M23.65,18s-.09.52-.72.8l-.29.15c-1.47.66-4.23.86-6.63.29M14.78,18.96v2.67s4.12,2.76,8.87.07v-3.7s-.26-.82-1.12-1.07M13.81,16.24v2.1s.46.79,2.68.96c2.22.16,5.03.01,5.99-.96v-1.95M22.49,16.24c0,.78-1.94,1.42-4.34,1.42s-4.34-.64-4.34-1.42,1.94-1.42,4.34-1.42,4.34.64,4.34,1.42Z"/>
  </g>
  <g class="cls-7">
    <path class="cls-4" d="M15.34,30.68c8.47,0,15.34-6.87,15.34-15.34S23.81,0,15.34,0,0,6.87,0,15.34s6.87,15.34,15.34,15.34Z"/>
  </g>
</svg>